<?xml version="1.0" encoding="UTF-8"?>
<svg xmlns="http://www.w3.org/2000/svg"
     xmlns:xlink="http://www.w3.org/1999/xlink"
     version="1.2"
     width="160mm" height="60mm" viewBox="0 0 160 60"
     stroke="none"
     fill="#000000"
     stroke-width="0.3"
     font-size="3.88"
>
<defs>
  <marker id="arrow" markerWidth="15" markerHeight="7" refX="5" refY="3.5" orient="auto" markerUnits="strokeWidth">
    <path d="M0,0 L15,3.5 L0,7 z" stroke="context-stroke" fill="context-stroke"/>
  </marker>
</defs>
<g stroke-width="0.87" fill="#000000" fill-opacity="0.000" stroke="#D3D3D3" id="img-d4472137-1">
  <g transform="translate(120,30)">
    <path fill="none" d="M24.88,-23.32 L -24.88 23.32" class="primitive"/>
  </g>
  <g transform="translate(146.67,30)">
    <path fill="none" d="M0,-23.2 L 0 23.2" class="primitive"/>
  </g>
  <g transform="translate(93.33,30)">
    <path fill="none" d="M50.33,-23.59 L -50.33 23.59" class="primitive"/>
  </g>
  <g transform="translate(80,30)">
    <path fill="none" d="M-37.52,-23.45 L 37.52 23.45" class="primitive"/>
  </g>
  <g transform="translate(66.67,30)">
    <path fill="none" d="M-24.88,-23.32 L 24.88 23.32" class="primitive"/>
  </g>
  <g transform="translate(93.33,30)">
    <path fill="none" d="M-50.33,-23.59 L 50.33 23.59" class="primitive"/>
  </g>
  <g transform="translate(80,30)">
    <path fill="none" d="M37.52,-23.45 L -37.52 23.45" class="primitive"/>
  </g>
  <g transform="translate(80,30)">
    <path fill="none" d="M12.39,-23.23 L -12.39 23.23" class="primitive"/>
  </g>
  <g transform="translate(120,30)">
    <path fill="none" d="M-24.88,-23.32 L 24.88 23.32" class="primitive"/>
  </g>
  <g transform="translate(80,30)">
    <path fill="none" d="M-63.26,-23.72 L 63.26 23.72" class="primitive"/>
  </g>
  <g transform="translate(40,30)">
    <path fill="none" d="M24.88,-23.32 L -24.88 23.32" class="primitive"/>
  </g>
  <g transform="translate(80,30)">
    <path fill="none" d="M-12.39,-23.23 L 12.39 23.23" class="primitive"/>
  </g>
  <g transform="translate(66.67,30)">
    <path fill="none" d="M0,-23.2 L 0 23.2" class="primitive"/>
  </g>
  <g transform="translate(106.67,30)">
    <path fill="none" d="M-37.52,-23.45 L 37.52 23.45" class="primitive"/>
  </g>
</g>
<g stroke-width="0.87" stroke="#D3D3D3" id="img-d4472137-2">
</g>
<g font-size="4" stroke="#000000" stroke-opacity="0.000" fill="#000000" id="img-d4472137-3">
</g>
<g stroke-width="0" stroke="#000000" stroke-opacity="0.000" id="img-d4472137-4">
  <g transform="translate(146.67,5)" fill="#20B2AA">
    <circle cx="0" cy="0" r="4.62" class="primitive"/>
  </g>
  <g transform="translate(40,5)" fill="#20B2AA">
    <circle cx="0" cy="0" r="4.62" class="primitive"/>
  </g>
  <g transform="translate(120,5)" fill="#20B2AA">
    <circle cx="0" cy="0" r="4.62" class="primitive"/>
  </g>
  <g transform="translate(93.33,5)" fill="#20B2AA">
    <circle cx="0" cy="0" r="4.62" class="primitive"/>
  </g>
  <g transform="translate(13.33,5)" fill="#20B2AA">
    <circle cx="0" cy="0" r="4.62" class="primitive"/>
  </g>
  <g transform="translate(66.67,5)" fill="#20B2AA">
    <circle cx="0" cy="0" r="4.62" class="primitive"/>
  </g>
  <g transform="translate(13.33,55)" fill="#FFA500">
    <circle cx="0" cy="0" r="4.62" class="primitive"/>
  </g>
  <g transform="translate(120,55)" fill="#FFA500">
    <circle cx="0" cy="0" r="4.62" class="primitive"/>
  </g>
  <g transform="translate(93.33,55)" fill="#FFA500">
    <circle cx="0" cy="0" r="4.62" class="primitive"/>
  </g>
  <g transform="translate(66.67,55)" fill="#FFA500">
    <circle cx="0" cy="0" r="4.62" class="primitive"/>
  </g>
  <g transform="translate(146.67,55)" fill="#FFA500">
    <circle cx="0" cy="0" r="4.62" class="primitive"/>
  </g>
  <g transform="translate(40,55)" fill="#FFA500">
    <circle cx="0" cy="0" r="4.62" class="primitive"/>
  </g>
</g>
<g font-size="4" stroke="#000000" stroke-opacity="0.000" fill="#000000" id="img-d4472137-5">
  <g transform="translate(146.67,5)">
    <g class="primitive">
      <text text-anchor="middle" dy="0.35em">1</text>
    </g>
  </g>
  <g transform="translate(40,5)">
    <g class="primitive">
      <text text-anchor="middle" dy="0.35em">2</text>
    </g>
  </g>
  <g transform="translate(120,5)">
    <g class="primitive">
      <text text-anchor="middle" dy="0.35em">3</text>
    </g>
  </g>
  <g transform="translate(93.33,5)">
    <g class="primitive">
      <text text-anchor="middle" dy="0.35em">4</text>
    </g>
  </g>
  <g transform="translate(13.33,5)">
    <g class="primitive">
      <text text-anchor="middle" dy="0.35em">5</text>
    </g>
  </g>
  <g transform="translate(66.67,5)">
    <g class="primitive">
      <text text-anchor="middle" dy="0.35em">6</text>
    </g>
  </g>
  <g transform="translate(13.33,55)">
    <g class="primitive">
      <text text-anchor="middle" dy="0.35em">7</text>
    </g>
  </g>
  <g transform="translate(120,55)">
    <g class="primitive">
      <text text-anchor="middle" dy="0.35em">8</text>
    </g>
  </g>
  <g transform="translate(93.33,55)">
    <g class="primitive">
      <text text-anchor="middle" dy="0.35em">9</text>
    </g>
  </g>
  <g transform="translate(66.67,55)">
    <g class="primitive">
      <text text-anchor="middle" dy="0.35em">10</text>
    </g>
  </g>
  <g transform="translate(146.67,55)">
    <g class="primitive">
      <text text-anchor="middle" dy="0.35em">11</text>
    </g>
  </g>
  <g transform="translate(40,55)">
    <g class="primitive">
      <text text-anchor="middle" dy="0.35em">12</text>
    </g>
  </g>
</g>
</svg>
