<?xml version="1.0" encoding="UTF-8"?>
<svg xmlns="http://www.w3.org/2000/svg"
     xmlns:xlink="http://www.w3.org/1999/xlink"
     version="1.2"
     width="160mm" height="80mm" viewBox="0 0 160 80"
     stroke="none"
     fill="#000000"
     stroke-width="0.3"
     font-size="3.88"
>
<defs>
  <marker id="arrow" markerWidth="15" markerHeight="7" refX="5" refY="3.5" orient="auto" markerUnits="strokeWidth">
    <path d="M0,0 L15,3.5 L0,7 z" stroke="context-stroke" fill="context-stroke"/>
  </marker>
</defs>
<g stroke-width="0.87" fill="#000000" fill-opacity="0.000" stroke="#D3D3D3" id="img-7e8028b9-1">
  <g transform="translate(99.05,40)">
    <path fill="none" d="M-26.68,-31.12 L 26.68 31.12" class="primitive"/>
  </g>
  <g transform="translate(80,40)">
    <path fill="none" d="M-8.84,-30.95 L 8.84 30.95" class="primitive"/>
  </g>
  <g transform="translate(89.52,40)">
    <path fill="none" d="M-17.73,-31.02 L 17.73 31.02" class="primitive"/>
  </g>
  <g transform="translate(108.57,40)">
    <path fill="none" d="M-35.71,-31.24 L 35.71 31.24" class="primitive"/>
  </g>
  <g transform="translate(89.52,40)">
    <path fill="none" d="M-35.71,-31.24 L 35.71 31.24" class="primitive"/>
  </g>
  <g transform="translate(41.9,40)">
    <path fill="none" d="M8.84,-30.95 L -8.84 30.95" class="primitive"/>
  </g>
  <g transform="translate(51.43,40)">
    <path fill="none" d="M-0,-30.93 L 0 30.93" class="primitive"/>
  </g>
  <g transform="translate(70.48,40)">
    <path fill="none" d="M-17.73,-31.02 L 17.73 31.02" class="primitive"/>
  </g>
  <g transform="translate(32.38,40)">
    <path fill="none" d="M17.73,-31.02 L -17.73 31.02" class="primitive"/>
  </g>
  <g transform="translate(99.05,40)">
    <path fill="none" d="M-44.82,-31.38 L 44.82 31.38" class="primitive"/>
  </g>
  <g transform="translate(13.33,40)">
    <path fill="none" d="M-0,-30.93 L 0 30.93" class="primitive"/>
  </g>
  <g transform="translate(80,40)">
    <path fill="none" d="M-44.82,-31.38 L 44.82 31.38" class="primitive"/>
  </g>
  <g transform="translate(51.43,40)">
    <path fill="none" d="M-17.73,-31.02 L 17.73 31.02" class="primitive"/>
  </g>
  <g transform="translate(22.86,40)">
    <path fill="none" d="M8.84,-30.95 L -8.84 30.95" class="primitive"/>
  </g>
  <g transform="translate(89.52,40)">
    <path fill="none" d="M-54.01,-31.51 L 54.01 31.51" class="primitive"/>
  </g>
</g>
<g stroke-width="0.87" stroke="#D3D3D3" id="img-7e8028b9-2">
</g>
<g font-size="4" stroke="#000000" stroke-opacity="0.000" fill="#000000" id="img-7e8028b9-3">
</g>
<g stroke-width="0" stroke="#000000" stroke-opacity="0.000" id="img-7e8028b9-4">
  <g transform="translate(70.48,6.67)" fill="#20B2AA">
    <circle cx="0" cy="0" r="4.62" class="primitive"/>
  </g>
  <g transform="translate(51.43,6.67)" fill="#20B2AA">
    <circle cx="0" cy="0" r="4.62" class="primitive"/>
  </g>
  <g transform="translate(13.33,6.67)" fill="#20B2AA">
    <circle cx="0" cy="0" r="4.62" class="primitive"/>
  </g>
  <g transform="translate(32.38,6.67)" fill="#20B2AA">
    <circle cx="0" cy="0" r="4.62" class="primitive"/>
  </g>
  <g transform="translate(127.62,73.33)" fill="#FFA500">
    <circle cx="0" cy="0" r="4.62" class="primitive"/>
  </g>
  <g transform="translate(32.38,73.33)" fill="#FFA500">
    <circle cx="0" cy="0" r="4.62" class="primitive"/>
  </g>
  <g transform="translate(51.43,73.33)" fill="#FFA500">
    <circle cx="0" cy="0" r="4.62" class="primitive"/>
  </g>
  <g transform="translate(70.48,73.33)" fill="#FFA500">
    <circle cx="0" cy="0" r="4.62" class="primitive"/>
  </g>
  <g transform="translate(89.52,73.33)" fill="#FFA500">
    <circle cx="0" cy="0" r="4.62" class="primitive"/>
  </g>
  <g transform="translate(108.57,73.33)" fill="#FFA500">
    <circle cx="0" cy="0" r="4.62" class="primitive"/>
  </g>
  <g transform="translate(13.33,73.33)" fill="#FFA500">
    <circle cx="0" cy="0" r="4.62" class="primitive"/>
  </g>
  <g transform="translate(146.67,73.33)" fill="#FFA500">
    <circle cx="0" cy="0" r="4.62" class="primitive"/>
  </g>
</g>
<g font-size="4" stroke="#000000" stroke-opacity="0.000" fill="#000000" id="img-7e8028b9-5">
  <g transform="translate(70.48,6.67)">
    <g class="primitive">
      <text text-anchor="middle" dy="0.35em">1</text>
    </g>
  </g>
  <g transform="translate(51.43,6.67)">
    <g class="primitive">
      <text text-anchor="middle" dy="0.35em">2</text>
    </g>
  </g>
  <g transform="translate(13.33,6.67)">
    <g class="primitive">
      <text text-anchor="middle" dy="0.35em">3</text>
    </g>
  </g>
  <g transform="translate(32.38,6.67)">
    <g class="primitive">
      <text text-anchor="middle" dy="0.35em">4</text>
    </g>
  </g>
  <g transform="translate(127.62,73.33)">
    <g class="primitive">
      <text text-anchor="middle" dy="0.35em">5</text>
    </g>
  </g>
  <g transform="translate(32.38,73.33)">
    <g class="primitive">
      <text text-anchor="middle" dy="0.35em">6</text>
    </g>
  </g>
  <g transform="translate(51.43,73.33)">
    <g class="primitive">
      <text text-anchor="middle" dy="0.35em">7</text>
    </g>
  </g>
  <g transform="translate(70.48,73.33)">
    <g class="primitive">
      <text text-anchor="middle" dy="0.35em">8</text>
    </g>
  </g>
  <g transform="translate(89.52,73.33)">
    <g class="primitive">
      <text text-anchor="middle" dy="0.35em">9</text>
    </g>
  </g>
  <g transform="translate(108.57,73.33)">
    <g class="primitive">
      <text text-anchor="middle" dy="0.35em">10</text>
    </g>
  </g>
  <g transform="translate(13.33,73.33)">
    <g class="primitive">
      <text text-anchor="middle" dy="0.35em">11</text>
    </g>
  </g>
  <g transform="translate(146.67,73.33)">
    <g class="primitive">
      <text text-anchor="middle" dy="0.35em">12</text>
    </g>
  </g>
</g>
</svg>
