<?xml version="1.0" encoding="UTF-8"?>
<svg xmlns="http://www.w3.org/2000/svg"
     xmlns:xlink="http://www.w3.org/1999/xlink"
     version="1.2"
     width="160mm" height="100mm" viewBox="0 0 160 100"
     stroke="none"
     fill="#000000"
     stroke-width="0.3"
     font-size="3.88"
>
<defs>
  <marker id="arrow" markerWidth="15" markerHeight="7" refX="5" refY="3.5" orient="auto" markerUnits="strokeWidth">
    <path d="M0,0 L15,3.5 L0,7 z" stroke="context-stroke" fill="context-stroke"/>
  </marker>
</defs>
<g stroke-width="0.83" fill="#000000" fill-opacity="0.000" stroke="#D3D3D3" id="img-e5868d6b-1">
  <g transform="translate(35.56,50)">
    <path fill="none" d="M-20.76,-38.93 L 20.76 38.93" class="primitive"/>
  </g>
  <g transform="translate(28.15,50)">
    <path fill="none" d="M-13.81,-38.85 L 13.81 38.85" class="primitive"/>
  </g>
  <g transform="translate(13.33,50)">
    <path fill="none" d="M-0,-38.78 L 0 38.78" class="primitive"/>
  </g>
  <g transform="translate(20.74,50)">
    <path fill="none" d="M-6.9,-38.8 L 6.9 38.8" class="primitive"/>
  </g>
  <g transform="translate(50.37,50)">
    <path fill="none" d="M-6.9,-38.8 L 6.9 38.8" class="primitive"/>
  </g>
  <g transform="translate(80,50)">
    <path fill="none" d="M-34.79,-39.14 L 34.79 39.14" class="primitive"/>
  </g>
  <g transform="translate(72.59,50)">
    <path fill="none" d="M-27.75,-39.03 L 27.75 39.03" class="primitive"/>
  </g>
  <g transform="translate(42.96,50)">
    <path fill="none" d="M0,-38.78 L 0 38.78" class="primitive"/>
  </g>
  <g transform="translate(94.81,50)">
    <path fill="none" d="M-49.01,-39.39 L 49.01 39.39" class="primitive"/>
  </g>
  <g transform="translate(65.19,50)">
    <path fill="none" d="M-20.76,-38.93 L 20.76 38.93" class="primitive"/>
  </g>
  <g transform="translate(57.78,50)">
    <path fill="none" d="M-13.81,-38.85 L 13.81 38.85" class="primitive"/>
  </g>
  <g transform="translate(65.19,50)">
    <path fill="none" d="M-34.79,-39.14 L 34.79 39.14" class="primitive"/>
  </g>
  <g transform="translate(80,50)">
    <path fill="none" d="M-49.01,-39.39 L 49.01 39.39" class="primitive"/>
  </g>
  <g transform="translate(35.56,50)">
    <path fill="none" d="M-6.9,-38.8 L 6.9 38.8" class="primitive"/>
  </g>
  <g transform="translate(57.78,50)">
    <path fill="none" d="M-27.75,-39.03 L 27.75 39.03" class="primitive"/>
  </g>
  <g transform="translate(20.74,50)">
    <path fill="none" d="M6.9,-38.8 L -6.9 38.8" class="primitive"/>
  </g>
  <g transform="translate(50.37,50)">
    <path fill="none" d="M-20.76,-38.93 L 20.76 38.93" class="primitive"/>
  </g>
  <g transform="translate(28.15,50)">
    <path fill="none" d="M-0,-38.78 L 0 38.78" class="primitive"/>
  </g>
</g>
<g stroke-width="0.83" stroke="#D3D3D3" id="img-e5868d6b-2">
</g>
<g font-size="4" stroke="#000000" stroke-opacity="0.000" fill="#000000" id="img-e5868d6b-3">
</g>
<g stroke-width="0" stroke="#000000" stroke-opacity="0.000" id="img-e5868d6b-4">
  <g transform="translate(13.33,8.33)" fill="#20B2AA">
    <circle cx="0" cy="0" r="4.44" class="primitive"/>
  </g>
  <g transform="translate(42.96,8.33)" fill="#20B2AA">
    <circle cx="0" cy="0" r="4.44" class="primitive"/>
  </g>
  <g transform="translate(28.15,8.33)" fill="#20B2AA">
    <circle cx="0" cy="0" r="4.44" class="primitive"/>
  </g>
  <g transform="translate(57.78,91.67)" fill="#FFA500">
    <circle cx="0" cy="0" r="4.44" class="primitive"/>
  </g>
  <g transform="translate(117.04,91.67)" fill="#FFA500">
    <circle cx="0" cy="0" r="4.44" class="primitive"/>
  </g>
  <g transform="translate(102.22,91.67)" fill="#FFA500">
    <circle cx="0" cy="0" r="4.44" class="primitive"/>
  </g>
  <g transform="translate(131.85,91.67)" fill="#FFA500">
    <circle cx="0" cy="0" r="4.44" class="primitive"/>
  </g>
  <g transform="translate(42.96,91.67)" fill="#FFA500">
    <circle cx="0" cy="0" r="4.44" class="primitive"/>
  </g>
  <g transform="translate(146.67,91.67)" fill="#FFA500">
    <circle cx="0" cy="0" r="4.44" class="primitive"/>
  </g>
  <g transform="translate(87.41,91.67)" fill="#FFA500">
    <circle cx="0" cy="0" r="4.44" class="primitive"/>
  </g>
  <g transform="translate(13.33,91.67)" fill="#FFA500">
    <circle cx="0" cy="0" r="4.44" class="primitive"/>
  </g>
  <g transform="translate(72.59,91.67)" fill="#FFA500">
    <circle cx="0" cy="0" r="4.44" class="primitive"/>
  </g>
  <g transform="translate(28.15,91.67)" fill="#FFA500">
    <circle cx="0" cy="0" r="4.44" class="primitive"/>
  </g>
</g>
<g font-size="4" stroke="#000000" stroke-opacity="0.000" fill="#000000" id="img-e5868d6b-5">
  <g transform="translate(13.33,8.33)">
    <g class="primitive">
      <text text-anchor="middle" dy="0.35em">1</text>
    </g>
  </g>
  <g transform="translate(42.96,8.33)">
    <g class="primitive">
      <text text-anchor="middle" dy="0.35em">2</text>
    </g>
  </g>
  <g transform="translate(28.15,8.33)">
    <g class="primitive">
      <text text-anchor="middle" dy="0.35em">3</text>
    </g>
  </g>
  <g transform="translate(57.78,91.67)">
    <g class="primitive">
      <text text-anchor="middle" dy="0.35em">4</text>
    </g>
  </g>
  <g transform="translate(117.04,91.67)">
    <g class="primitive">
      <text text-anchor="middle" dy="0.35em">5</text>
    </g>
  </g>
  <g transform="translate(102.22,91.67)">
    <g class="primitive">
      <text text-anchor="middle" dy="0.35em">6</text>
    </g>
  </g>
  <g transform="translate(131.85,91.67)">
    <g class="primitive">
      <text text-anchor="middle" dy="0.35em">7</text>
    </g>
  </g>
  <g transform="translate(42.96,91.67)">
    <g class="primitive">
      <text text-anchor="middle" dy="0.35em">8</text>
    </g>
  </g>
  <g transform="translate(146.67,91.67)">
    <g class="primitive">
      <text text-anchor="middle" dy="0.35em">9</text>
    </g>
  </g>
  <g transform="translate(87.41,91.67)">
    <g class="primitive">
      <text text-anchor="middle" dy="0.35em">10</text>
    </g>
  </g>
  <g transform="translate(13.33,91.67)">
    <g class="primitive">
      <text text-anchor="middle" dy="0.35em">11</text>
    </g>
  </g>
  <g transform="translate(72.59,91.67)">
    <g class="primitive">
      <text text-anchor="middle" dy="0.35em">12</text>
    </g>
  </g>
  <g transform="translate(28.15,91.67)">
    <g class="primitive">
      <text text-anchor="middle" dy="0.35em">13</text>
    </g>
  </g>
</g>
</svg>
